<svg width="31" height="31" viewBox="0 0 31 31" fill="none" xmlns="http://www.w3.org/2000/svg">
<g clip-path="url(#clip0_12_1410)">
<path d="M4.77709 26.5256C7.31963 28.7603 10.5905 29.9899 13.9755 29.9836C17.5008 29.9836 20.7178 28.683 23.1783 26.5256C25.362 24.3008 18.1516 16.3855 13.9755 13.2323C9.80387 16.3846 2.58907 24.3008 4.77709 26.5256ZM17.7742 9.75332C20.6855 13.2017 26.4905 21.7626 24.8528 24.7882C26.8625 22.3055 27.9565 19.2068 27.9509 16.0126C27.9509 12.123 26.3639 8.60209 23.7933 6.07254C23.7933 6.07254 23.7609 6.04459 23.698 6.02276C23.5925 5.98642 23.4812 5.96955 23.3696 5.97297C22.684 5.97297 21.0593 6.47696 17.7751 9.75332H17.7742ZM4.25301 6.02276C4.19012 6.04459 4.15781 6.07254 4.15257 6.07254C2.83444 7.37023 1.78824 8.91766 1.07511 10.6244C0.361976 12.3311 -0.00377064 14.1628 -0.000752035 16.0126C-0.000752035 19.3378 1.15921 22.3862 3.09742 24.783C1.46929 21.7538 7.26471 13.1965 10.1803 9.75244C6.89611 6.47172 5.2671 5.9721 4.58056 5.9721C4.46842 5.9668 4.35644 5.98556 4.25214 6.02712L4.25301 6.02276ZM13.9755 6.16862C13.9755 6.16862 10.5454 4.16228 7.86566 4.0662C6.81488 4.03039 6.17376 4.40772 6.09515 4.46188C8.59325 2.78395 11.2495 2.03278 13.9563 2.03278H13.9747C16.6955 2.03278 19.3377 2.78395 21.8542 4.46188C21.7764 4.40685 21.1388 4.02951 20.0837 4.0662C17.4039 4.16141 13.9738 6.16338 13.9738 6.16338L13.9755 6.16862Z" fill="#F0E9E9"/>
</g>
<defs>
<clipPath id="clip0_12_1410">
<rect width="27.9508" height="27.9508" fill="white" transform="translate(0 2.03278)"/>
</clipPath>
</defs>
</svg>
